<?xml version="1.0" encoding="UTF-8" standalone="no"?>
<!-- Generated by graphviz version 2.40.1 (20161225.0304)
 -->

<!-- Title: MerkleTree Pages: 1 -->

<svg
   width="1200"
   height="500"
   version="1.1"
   id="svg4363"
   sodipodi:docname="diagrams.svg"
   inkscape:export-filename="/home/jgm/src/go/wealdtech/ethdo/docs/images/credentials-change-online.png"
   inkscape:export-xdpi="180"
   inkscape:export-ydpi="180"
   inkscape:version="1.1.2 (0a00cf5339, 2022-02-04)"
   xmlns:inkscape="http://www.inkscape.org/namespaces/inkscape"
   xmlns:sodipodi="http://sodipodi.sourceforge.net/DTD/sodipodi-0.dtd"
   xmlns="http://www.w3.org/2000/svg"
   xmlns:svg="http://www.w3.org/2000/svg"
   xmlns:rdf="http://www.w3.org/1999/02/22-rdf-syntax-ns#"
   xmlns:cc="http://creativecommons.org/ns#"
   xmlns:dc="http://purl.org/dc/elements/1.1/">
  <metadata
     id="metadata4369">
    <rdf:RDF>
      <cc:Work
         rdf:about="">
        <dc:format>image/svg+xml</dc:format>
        <dc:type
           rdf:resource="http://purl.org/dc/dcmitype/StillImage" />
      </cc:Work>
    </rdf:RDF>
  </metadata>
  <defs
     id="defs4367">
    <marker
       inkscape:isstock="true"
       style="overflow:visible;"
       id="marker4440"
       refX="0.0"
       refY="0.0"
       orient="auto"
       inkscape:stockid="Arrow1Lend">
      <path
         transform="scale(0.8) rotate(180) translate(12.5,0)"
         style="fill-rule:evenodd;stroke:#d0d0d0;stroke-width:1pt;stroke-opacity:1;fill:#d0d0d0;fill-opacity:1"
         d="M 0.0,0.0 L 5.0,-5.0 L -12.5,0.0 L 5.0,5.0 L 0.0,0.0 z "
         id="path4438" />
    </marker>
    <marker
       inkscape:isstock="true"
       style="overflow:visible"
       id="marker4436"
       refX="0.0"
       refY="0.0"
       orient="auto"
       inkscape:stockid="Arrow1Lstart">
      <path
         transform="scale(0.8) translate(12.5,0)"
         style="fill-rule:evenodd;stroke:#d0d0d0;stroke-width:1pt;stroke-opacity:1;fill:#d0d0d0;fill-opacity:1"
         d="M 0.0,0.0 L 5.0,-5.0 L -12.5,0.0 L 5.0,5.0 L 0.0,0.0 z "
         id="path4434" />
    </marker>
    <marker
       inkscape:stockid="Arrow1Lend"
       orient="auto"
       refY="0.0"
       refX="0.0"
       id="marker4412"
       style="overflow:visible;"
       inkscape:isstock="true">
      <path
         id="path4410"
         d="M 0.0,0.0 L 5.0,-5.0 L -12.5,0.0 L 5.0,5.0 L 0.0,0.0 z "
         style="fill-rule:evenodd;stroke:#d0d0d0;stroke-width:1pt;stroke-opacity:1;fill:#d0d0d0;fill-opacity:1"
         transform="scale(0.8) rotate(180) translate(12.5,0)" />
    </marker>
    <marker
       inkscape:stockid="Arrow1Lstart"
       orient="auto"
       refY="0.0"
       refX="0.0"
       id="marker4408"
       style="overflow:visible"
       inkscape:isstock="true">
      <path
         id="path4406"
         d="M 0.0,0.0 L 5.0,-5.0 L -12.5,0.0 L 5.0,5.0 L 0.0,0.0 z "
         style="fill-rule:evenodd;stroke:#d0d0d0;stroke-width:1pt;stroke-opacity:1;fill:#d0d0d0;fill-opacity:1"
         transform="scale(0.8) translate(12.5,0)" />
    </marker>
    <marker
       inkscape:stockid="Arrow1Lend"
       orient="auto"
       refY="0.0"
       refX="0.0"
       id="marker4318"
       style="overflow:visible;"
       inkscape:isstock="true">
      <path
         id="path4316"
         d="M 0.0,0.0 L 5.0,-5.0 L -12.5,0.0 L 5.0,5.0 L 0.0,0.0 z "
         style="fill-rule:evenodd;stroke:#d0d0d0;stroke-width:1pt;stroke-opacity:1;fill:#d0d0d0;fill-opacity:1"
         transform="scale(0.8) rotate(180) translate(12.5,0)" />
    </marker>
    <marker
       inkscape:stockid="Arrow1Lstart"
       orient="auto"
       refY="0.0"
       refX="0.0"
       id="marker4314"
       style="overflow:visible"
       inkscape:isstock="true">
      <path
         id="path4312"
         d="M 0.0,0.0 L 5.0,-5.0 L -12.5,0.0 L 5.0,5.0 L 0.0,0.0 z "
         style="fill-rule:evenodd;stroke:#d0d0d0;stroke-width:1pt;stroke-opacity:1;fill:#d0d0d0;fill-opacity:1"
         transform="scale(0.8) translate(12.5,0)" />
    </marker>
    <marker
       inkscape:isstock="true"
       style="overflow:visible"
       id="marker4120"
       refX="0.0"
       refY="0.0"
       orient="auto"
       inkscape:stockid="Arrow1Lstart">
      <path
         transform="scale(0.8) translate(12.5,0)"
         style="fill-rule:evenodd;stroke:#d0d0d0;stroke-width:1pt;stroke-opacity:1;fill:#d0d0d0;fill-opacity:1"
         d="M 0.0,0.0 L 5.0,-5.0 L -12.5,0.0 L 5.0,5.0 L 0.0,0.0 z "
         id="path4118" />
    </marker>
    <marker
       inkscape:isstock="true"
       style="overflow:visible;"
       id="marker4016"
       refX="0.0"
       refY="0.0"
       orient="auto"
       inkscape:stockid="Arrow1Lend">
      <path
         transform="scale(0.8) rotate(180) translate(12.5,0)"
         style="fill-rule:evenodd;stroke:#d0d0d0;stroke-width:1pt;stroke-opacity:1;fill:#d0d0d0;fill-opacity:1"
         d="M 0.0,0.0 L 5.0,-5.0 L -12.5,0.0 L 5.0,5.0 L 0.0,0.0 z "
         id="path4014" />
    </marker>
    <marker
       inkscape:isstock="true"
       style="overflow:visible"
       id="marker4012"
       refX="0.0"
       refY="0.0"
       orient="auto"
       inkscape:stockid="Arrow1Lstart">
      <path
         transform="scale(0.8) translate(12.5,0)"
         style="fill-rule:evenodd;stroke:#d0d0d0;stroke-width:1pt;stroke-opacity:1;fill:#d0d0d0;fill-opacity:1"
         d="M 0.0,0.0 L 5.0,-5.0 L -12.5,0.0 L 5.0,5.0 L 0.0,0.0 z "
         id="path4010" />
    </marker>
    <marker
       inkscape:isstock="true"
       style="overflow:visible;"
       id="marker3717"
       refX="0.0"
       refY="0.0"
       orient="auto"
       inkscape:stockid="Arrow1Lend">
      <path
         transform="scale(0.8) rotate(180) translate(12.5,0)"
         style="fill-rule:evenodd;stroke:#d0d0d0;stroke-width:1pt;stroke-opacity:1;fill:#d0d0d0;fill-opacity:1"
         d="M 0.0,0.0 L 5.0,-5.0 L -12.5,0.0 L 5.0,5.0 L 0.0,0.0 z "
         id="path3715" />
    </marker>
    <marker
       inkscape:isstock="true"
       style="overflow:visible"
       id="marker3713"
       refX="0.0"
       refY="0.0"
       orient="auto"
       inkscape:stockid="Arrow1Lstart">
      <path
         transform="scale(0.8) translate(12.5,0)"
         style="fill-rule:evenodd;stroke:#d0d0d0;stroke-width:1pt;stroke-opacity:1;fill:#d0d0d0;fill-opacity:1"
         d="M 0.0,0.0 L 5.0,-5.0 L -12.5,0.0 L 5.0,5.0 L 0.0,0.0 z "
         id="path3711" />
    </marker>
    <marker
       inkscape:isstock="true"
       style="overflow:visible;"
       id="marker3637"
       refX="0.0"
       refY="0.0"
       orient="auto"
       inkscape:stockid="Arrow1Lend">
      <path
         transform="scale(0.8) rotate(180) translate(12.5,0)"
         style="fill-rule:evenodd;stroke:#d0d0d0;stroke-width:1pt;stroke-opacity:1;fill:#d0d0d0;fill-opacity:1"
         d="M 0.0,0.0 L 5.0,-5.0 L -12.5,0.0 L 5.0,5.0 L 0.0,0.0 z "
         id="path3635" />
    </marker>
    <marker
       inkscape:isstock="true"
       style="overflow:visible"
       id="marker3633"
       refX="0.0"
       refY="0.0"
       orient="auto"
       inkscape:stockid="Arrow1Lstart">
      <path
         transform="scale(0.8) translate(12.5,0)"
         style="fill-rule:evenodd;stroke:#d0d0d0;stroke-width:1pt;stroke-opacity:1;fill:#d0d0d0;fill-opacity:1"
         d="M 0.0,0.0 L 5.0,-5.0 L -12.5,0.0 L 5.0,5.0 L 0.0,0.0 z "
         id="path3631" />
    </marker>
    <marker
       inkscape:stockid="Arrow1Lend"
       orient="auto"
       refY="0.0"
       refX="0.0"
       id="marker3617"
       style="overflow:visible;"
       inkscape:isstock="true">
      <path
         id="path3615"
         d="M 0.0,0.0 L 5.0,-5.0 L -12.5,0.0 L 5.0,5.0 L 0.0,0.0 z "
         style="fill-rule:evenodd;stroke:#d0d0d0;stroke-width:1pt;stroke-opacity:1;fill:#d0d0d0;fill-opacity:1"
         transform="scale(0.8) rotate(180) translate(12.5,0)" />
    </marker>
    <marker
       inkscape:stockid="Arrow1Lstart"
       orient="auto"
       refY="0.0"
       refX="0.0"
       id="marker3613"
       style="overflow:visible"
       inkscape:isstock="true">
      <path
         id="path3611"
         d="M 0.0,0.0 L 5.0,-5.0 L -12.5,0.0 L 5.0,5.0 L 0.0,0.0 z "
         style="fill-rule:evenodd;stroke:#d0d0d0;stroke-width:1pt;stroke-opacity:1;fill:#d0d0d0;fill-opacity:1"
         transform="scale(0.8) translate(12.5,0)" />
    </marker>
    <marker
       inkscape:stockid="Arrow1Lend"
       orient="auto"
       refY="0.0"
       refX="0.0"
       id="marker3607"
       style="overflow:visible;"
       inkscape:isstock="true">
      <path
         id="path3605"
         d="M 0.0,0.0 L 5.0,-5.0 L -12.5,0.0 L 5.0,5.0 L 0.0,0.0 z "
         style="fill-rule:evenodd;stroke:#d0d0d0;stroke-width:1pt;stroke-opacity:1;fill:#d0d0d0;fill-opacity:1"
         transform="scale(0.8) rotate(180) translate(12.5,0)" />
    </marker>
    <marker
       inkscape:stockid="Arrow1Lstart"
       orient="auto"
       refY="0.0"
       refX="0.0"
       id="marker3603"
       style="overflow:visible"
       inkscape:isstock="true">
      <path
         id="path3601"
         d="M 0.0,0.0 L 5.0,-5.0 L -12.5,0.0 L 5.0,5.0 L 0.0,0.0 z "
         style="fill-rule:evenodd;stroke:#d0d0d0;stroke-width:1pt;stroke-opacity:1;fill:#d0d0d0;fill-opacity:1"
         transform="scale(0.8) translate(12.5,0)" />
    </marker>
    <marker
       inkscape:isstock="true"
       style="overflow:visible"
       id="marker3453"
       refX="0.0"
       refY="0.0"
       orient="auto"
       inkscape:stockid="Arrow1Lstart">
      <path
         transform="scale(0.8) translate(12.5,0)"
         style="fill-rule:evenodd;stroke:#d0d0d0;stroke-width:1pt;stroke-opacity:1;fill:#d0d0d0;fill-opacity:1"
         d="M 0.0,0.0 L 5.0,-5.0 L -12.5,0.0 L 5.0,5.0 L 0.0,0.0 z "
         id="path3451" />
    </marker>
    <marker
       inkscape:isstock="true"
       style="overflow:visible;"
       id="marker3353"
       refX="0.0"
       refY="0.0"
       orient="auto"
       inkscape:stockid="Arrow1Lend">
      <path
         transform="scale(0.8) rotate(180) translate(12.5,0)"
         style="fill-rule:evenodd;stroke:#d0d0d0;stroke-width:1pt;stroke-opacity:1;fill:#d0d0d0;fill-opacity:1"
         d="M 0.0,0.0 L 5.0,-5.0 L -12.5,0.0 L 5.0,5.0 L 0.0,0.0 z "
         id="path3351" />
    </marker>
    <marker
       inkscape:isstock="true"
       style="overflow:visible"
       id="marker3349"
       refX="0.0"
       refY="0.0"
       orient="auto"
       inkscape:stockid="Arrow1Lstart">
      <path
         transform="scale(0.8) translate(12.5,0)"
         style="fill-rule:evenodd;stroke:#d0d0d0;stroke-width:1pt;stroke-opacity:1;fill:#d0d0d0;fill-opacity:1"
         d="M 0.0,0.0 L 5.0,-5.0 L -12.5,0.0 L 5.0,5.0 L 0.0,0.0 z "
         id="path3347" />
    </marker>
    <marker
       inkscape:isstock="true"
       style="overflow:visible;"
       id="marker3035"
       refX="0.0"
       refY="0.0"
       orient="auto"
       inkscape:stockid="Arrow1Lend">
      <path
         transform="scale(0.8) rotate(180) translate(12.5,0)"
         style="fill-rule:evenodd;stroke:#d0d0d0;stroke-width:1pt;stroke-opacity:1;fill:#d0d0d0;fill-opacity:1"
         d="M 0.0,0.0 L 5.0,-5.0 L -12.5,0.0 L 5.0,5.0 L 0.0,0.0 z "
         id="path3033" />
    </marker>
    <marker
       inkscape:isstock="true"
       style="overflow:visible"
       id="marker3027"
       refX="0.0"
       refY="0.0"
       orient="auto"
       inkscape:stockid="Arrow1Lstart">
      <path
         transform="scale(0.8) translate(12.5,0)"
         style="fill-rule:evenodd;stroke:#d0d0d0;stroke-width:1pt;stroke-opacity:1;fill:#d0d0d0;fill-opacity:1"
         d="M 0.0,0.0 L 5.0,-5.0 L -12.5,0.0 L 5.0,5.0 L 0.0,0.0 z "
         id="path3025" />
    </marker>
    <marker
       inkscape:isstock="true"
       style="overflow:visible;"
       id="marker3001"
       refX="0.0"
       refY="0.0"
       orient="auto"
       inkscape:stockid="Arrow1Lend">
      <path
         transform="scale(0.8) rotate(180) translate(12.5,0)"
         style="fill-rule:evenodd;stroke:#d0d0d0;stroke-width:1pt;stroke-opacity:1;fill:#d0d0d0;fill-opacity:1"
         d="M 0.0,0.0 L 5.0,-5.0 L -12.5,0.0 L 5.0,5.0 L 0.0,0.0 z "
         id="path2999" />
    </marker>
    <marker
       inkscape:isstock="true"
       style="overflow:visible"
       id="marker2997"
       refX="0.0"
       refY="0.0"
       orient="auto"
       inkscape:stockid="Arrow1Lstart">
      <path
         transform="scale(0.8) translate(12.5,0)"
         style="fill-rule:evenodd;stroke:#d0d0d0;stroke-width:1pt;stroke-opacity:1;fill:#d0d0d0;fill-opacity:1"
         d="M 0.0,0.0 L 5.0,-5.0 L -12.5,0.0 L 5.0,5.0 L 0.0,0.0 z "
         id="path2995" />
    </marker>
    <marker
       inkscape:stockid="Arrow2Mend"
       orient="auto"
       refY="0.0"
       refX="0.0"
       id="marker2565"
       style="overflow:visible;"
       inkscape:isstock="true">
      <path
         id="path2563"
         style="fill-rule:evenodd;stroke-width:0.625;stroke-linejoin:round;stroke:#d0d0d0;stroke-opacity:1;fill:#d0d0d0;fill-opacity:1"
         d="M 8.7185878,4.0337352 L -2.2072895,0.016013256 L 8.7185884,-4.0017078 C 6.9730900,-1.6296469 6.9831476,1.6157441 8.7185878,4.0337352 z "
         transform="scale(0.6) rotate(180) translate(0,0)" />
    </marker>
    <marker
       inkscape:stockid="Arrow2Mend"
       orient="auto"
       refY="0.0"
       refX="0.0"
       id="marker2555"
       style="overflow:visible;"
       inkscape:isstock="true">
      <path
         id="path2553"
         style="fill-rule:evenodd;stroke-width:0.625;stroke-linejoin:round;stroke:#d0d0d0;stroke-opacity:1;fill:#d0d0d0;fill-opacity:1"
         d="M 8.7185878,4.0337352 L -2.2072895,0.016013256 L 8.7185884,-4.0017078 C 6.9730900,-1.6296469 6.9831476,1.6157441 8.7185878,4.0337352 z "
         transform="scale(0.6) rotate(180) translate(0,0)" />
    </marker>
    <marker
       inkscape:isstock="true"
       style="overflow:visible;"
       id="marker2532"
       refX="0.0"
       refY="0.0"
       orient="auto"
       inkscape:stockid="Arrow2Mend">
      <path
         transform="scale(0.6) rotate(180) translate(0,0)"
         d="M 8.7185878,4.0337352 L -2.2072895,0.016013256 L 8.7185884,-4.0017078 C 6.9730900,-1.6296469 6.9831476,1.6157441 8.7185878,4.0337352 z "
         style="fill-rule:evenodd;stroke-width:0.625;stroke-linejoin:round;stroke:#d0d0d0;stroke-opacity:1;fill:#d0d0d0;fill-opacity:1"
         id="path2530" />
    </marker>
    <marker
       inkscape:isstock="true"
       style="overflow:visible;"
       id="marker15035"
       refX="0.0"
       refY="0.0"
       orient="auto"
       inkscape:stockid="Arrow2Mend">
      <path
         transform="scale(0.6) rotate(180) translate(0,0)"
         d="M 8.7185878,4.0337352 L -2.2072895,0.016013256 L 8.7185884,-4.0017078 C 6.9730900,-1.6296469 6.9831476,1.6157441 8.7185878,4.0337352 z "
         style="fill-rule:evenodd;stroke-width:0.625;stroke-linejoin:round;stroke:#d0d0d0;stroke-opacity:1;fill:#d0d0d0;fill-opacity:1"
         id="path15033" />
    </marker>
    <marker
       inkscape:isstock="true"
       style="overflow:visible;"
       id="marker14901"
       refX="0.0"
       refY="0.0"
       orient="auto"
       inkscape:stockid="Arrow2Mend">
      <path
         transform="scale(0.6) rotate(180) translate(0,0)"
         d="M 8.7185878,4.0337352 L -2.2072895,0.016013256 L 8.7185884,-4.0017078 C 6.9730900,-1.6296469 6.9831476,1.6157441 8.7185878,4.0337352 z "
         style="fill-rule:evenodd;stroke-width:0.625;stroke-linejoin:round;stroke:#d0d0d0;stroke-opacity:1;fill:#d0d0d0;fill-opacity:1"
         id="path14899" />
    </marker>
    <marker
       inkscape:stockid="Arrow2Mend"
       orient="auto"
       refY="0.0"
       refX="0.0"
       id="marker12697"
       style="overflow:visible;"
       inkscape:isstock="true">
      <path
         id="path12695"
         style="fill-rule:evenodd;stroke-width:0.625;stroke-linejoin:round;stroke:#d0d0d0;stroke-opacity:1;fill:#d0d0d0;fill-opacity:1"
         d="M 8.7185878,4.0337352 L -2.2072895,0.016013256 L 8.7185884,-4.0017078 C 6.9730900,-1.6296469 6.9831476,1.6157441 8.7185878,4.0337352 z "
         transform="scale(0.6) rotate(180) translate(0,0)" />
    </marker>
    <marker
       inkscape:isstock="true"
       style="overflow:visible;"
       id="marker5569"
       refX="0.0"
       refY="0.0"
       orient="auto"
       inkscape:stockid="Arrow2Mend">
      <path
         transform="scale(0.6) rotate(180) translate(0,0)"
         d="M 8.7185878,4.0337352 L -2.2072895,0.016013256 L 8.7185884,-4.0017078 C 6.9730900,-1.6296469 6.9831476,1.6157441 8.7185878,4.0337352 z "
         style="fill-rule:evenodd;stroke-width:0.625;stroke-linejoin:round;stroke:#d0d0d0;stroke-opacity:1;fill:#d0d0d0;fill-opacity:1"
         id="path5567" />
    </marker>
    <marker
       inkscape:isstock="true"
       style="overflow:visible;"
       id="marker3116"
       refX="0.0"
       refY="0.0"
       orient="auto"
       inkscape:stockid="Arrow1Lend">
      <path
         transform="scale(0.8) rotate(180) translate(12.5,0)"
         style="fill-rule:evenodd;stroke:#d0d0d0;stroke-width:1pt;stroke-opacity:1;fill:#d0d0d0;fill-opacity:1"
         d="M 0.0,0.0 L 5.0,-5.0 L -12.5,0.0 L 5.0,5.0 L 0.0,0.0 z "
         id="path3114" />
    </marker>
    <marker
       inkscape:stockid="Arrow1Lend"
       orient="auto"
       refY="0.0"
       refX="0.0"
       id="marker3102"
       style="overflow:visible;"
       inkscape:isstock="true">
      <path
         id="path2842"
         d="M 0.0,0.0 L 5.0,-5.0 L -12.5,0.0 L 5.0,5.0 L 0.0,0.0 z "
         style="fill-rule:evenodd;stroke:#d0d0d0;stroke-width:1pt;stroke-opacity:1;fill:#d0d0d0;fill-opacity:1"
         transform="scale(0.8) rotate(180) translate(12.5,0)" />
    </marker>
    <marker
       inkscape:stockid="Arrow1Lstart"
       orient="auto"
       refY="0.0"
       refX="0.0"
       id="Arrow1Lstart"
       style="overflow:visible"
       inkscape:isstock="true">
      <path
         id="path1073"
         d="M 0.0,0.0 L 5.0,-5.0 L -12.5,0.0 L 5.0,5.0 L 0.0,0.0 z "
         style="fill-rule:evenodd;stroke:#000000;stroke-width:1pt;stroke-opacity:1;fill:#000000;fill-opacity:1"
         transform="scale(0.8) translate(12.5,0)" />
    </marker>
  </defs>
  <sodipodi:namedview
     pagecolor="#ffffff"
     bordercolor="#666666"
     borderopacity="1"
     objecttolerance="10"
     gridtolerance="10"
     guidetolerance="10"
     inkscape:pageopacity="0"
     inkscape:pageshadow="2"
     inkscape:window-width="1920"
     inkscape:window-height="1140"
     id="namedview4365"
     showgrid="false"
     inkscape:zoom="0.82"
     inkscape:cx="600"
     inkscape:cy="249.39024"
     inkscape:window-x="0"
     inkscape:window-y="0"
     inkscape:window-maximized="1"
     inkscape:current-layer="layer9"
     units="px"
     inkscape:pagecheckerboard="0" />
  <g
     inkscape:groupmode="layer"
     id="layer7"
     inkscape:label="Base withdrawal credentials change"
     style="display:inline">
    <g
       id="g3352"
       transform="translate(330.851,-33.97924)"
       style="display:inline">
      <path
         id="path3344"
         d="m 542.8631,233.6392 a 48.64,48.64 0 0 0 -48.63984,48.63984 48.64,48.64 0 0 0 0.008,0.23438 48.64,48.64 0 0 0 -0.008,0.16562 48.64,48.64 0 0 0 0.008,0.23438 48.64,48.64 0 0 0 -0.008,0.16562 48.64,48.64 0 0 0 0.008,0.23438 48.64,48.64 0 0 0 -0.008,0.16562 48.64,48.64 0 0 0 0.008,0.23438 48.64,48.64 0 0 0 -0.008,0.16562 48.64,48.64 0 0 0 0.008,0.23438 48.64,48.64 0 0 0 -0.008,0.16562 48.64,48.64 0 0 0 0.008,0.23438 48.64,48.64 0 0 0 -0.008,0.16562 48.64,48.64 0 0 0 0.008,0.23438 48.64,48.64 0 0 0 -0.008,0.16562 48.64,48.64 0 0 0 0.008,0.23438 48.64,48.64 0 0 0 -0.008,0.16562 48.64,48.64 0 0 0 0.008,0.23438 48.64,48.64 0 0 0 -0.008,0.16562 48.64,48.64 0 0 0 48.63984,48.64024 48.64,48.64 0 0 0 48.63984,-48.64024 48.64,48.64 0 0 0 -0.008,-0.23437 48.64,48.64 0 0 0 0.008,-0.16563 48.64,48.64 0 0 0 -0.008,-0.23437 48.64,48.64 0 0 0 0.008,-0.16563 48.64,48.64 0 0 0 -0.008,-0.23437 48.64,48.64 0 0 0 0.008,-0.16563 48.64,48.64 0 0 0 -0.008,-0.23437 48.64,48.64 0 0 0 0.008,-0.16563 48.64,48.64 0 0 0 -0.008,-0.23437 48.64,48.64 0 0 0 0.008,-0.16563 48.64,48.64 0 0 0 -0.008,-0.23437 48.64,48.64 0 0 0 0.008,-0.16563 48.64,48.64 0 0 0 -0.008,-0.23437 48.64,48.64 0 0 0 0.008,-0.16563 48.64,48.64 0 0 0 -0.008,-0.23437 48.64,48.64 0 0 0 0.008,-0.16563 48.64,48.64 0 0 0 -0.008,-0.23437 48.64,48.64 0 0 0 0.008,-0.16563 48.64,48.64 0 0 0 -48.63984,-48.63984 z"
         style="fill:#000000;fill-opacity:1;stroke:none;stroke-width:0.19;stroke-linecap:square;stroke-miterlimit:4;stroke-dasharray:none;stroke-dashoffset:0;stroke-opacity:1" />
      <g
         id="g3350"
         transform="translate(117.34562,2.27034)">
        <path
           id="path3346"
           d="m 425.51748,231.16886 a 48.64,48.64 0 0 0 -48.63984,48.63984 48.64,48.64 0 0 0 48.63984,48.64024 48.64,48.64 0 0 0 48.63984,-48.64024 48.64,48.64 0 0 0 -48.63984,-48.63984 z m -26.54023,24.08008 h 3.35625 c 1.14095,0 1.86236,1.20829 1.32656,2.21719 -1.57129,2.9583 -4.71309,11.01741 0.016,19.88281 0.53769,1.00985 -0.1835,2.21992 -1.3254,2.21992 h -3.30976 c -0.58805,0 -1.13899,-0.33312 -1.38789,-0.86797 -2.23915,-4.80035 -2.53555,-8.94055 -2.53555,-11.2918 0,-4.02325 0.89283,-7.83393 2.45938,-11.27578 0.24699,-0.5434 0.80474,-0.88437 1.40039,-0.88437 z m 49.71171,0 h 3.36485 c 0.59565,0 1.15222,0.34036 1.39922,0.88281 1.5694,3.44185 2.46445,7.25314 2.46445,11.27734 0,4.0242 -0.89567,7.8355 -2.46602,11.27735 -0.247,0.54245 -0.80395,0.88242 -1.3996,0.88242 h -3.34688 c -1.15045,0 -1.86488,-1.21977 -1.32148,-2.23438 4.5733,-8.53194 1.70908,-16.61901 -0.0266,-19.87656 -0.5358,-1.00605 0.19393,-2.20898 1.33203,-2.20898 z m -39.23203,6.08008 h 3.2043 c 1.04595,0 1.76892,1.02886 1.41172,2.01211 -0.46835,1.2901 -0.71719,2.65816 -0.71719,4.06796 0,1.4098 0.24884,2.77787 0.71719,4.06797 0.35625,0.98325 -0.36577,2.01211 -1.41172,2.01211 h -3.2043 c -0.66595,0 -1.27898,-0.42767 -1.46328,-1.06797 -0.4655,-1.61215 -0.71601,-3.29071 -0.71601,-5.01211 0,-1.7214 0.25068,-3.40018 0.71523,-5.01328 0.18525,-0.6403 0.79811,-1.06679 1.46406,-1.06679 z m 16.06055,0 c 3.35635,0 6.07617,2.72182 6.07617,6.08007 0,1.27395 -0.39431,2.4537 -1.06406,3.43125 l 12.39766,29.77383 c 0.32205,0.77425 -0.0437,1.6645 -0.81797,1.9875 l -2.80352,1.16953 c -0.77425,0.323 -1.66333,-0.0428 -1.98633,-0.81796 l -4.67422,-11.22422 h -14.25664 l -4.67304,11.22422 c -0.32205,0.77424 -1.21208,1.14096 -1.98633,0.81796 l -2.80352,-1.16953 c -0.77425,-0.323 -1.14097,-1.21325 -0.81797,-1.9875 l 12.39766,-29.77383 c -0.66975,-0.97755 -1.06406,-2.1573 -1.06406,-3.43125 0,-3.35825 2.72077,-6.08007 6.07617,-6.08007 z m 12.85625,0 h 3.2043 c 0.66595,0 1.27898,0.42671 1.46328,1.06796 0.4655,1.61215 0.71601,3.29071 0.71601,5.01211 0,1.7214 -0.24973,3.39996 -0.71523,5.01211 -0.18525,0.64125 -0.79716,1.06797 -1.46406,1.06797 h -3.2043 c -1.04595,0 -1.76892,-1.02886 -1.41172,-2.01211 0.46835,-1.2901 0.71719,-2.65817 0.71719,-4.06797 0,-1.4098 -0.24884,-2.77786 -0.71719,-4.06796 -0.35625,-0.98325 0.36577,-2.01211 1.41172,-2.01211 z m -12.85625,13.28203 -4.59609,11.03789 h 9.19218 z"
           style="fill:#d0d0d0;fill-opacity:1;stroke:none;stroke-width:0.19;stroke-linecap:square;stroke-miterlimit:4;stroke-dasharray:none;stroke-dashoffset:0;stroke-opacity:1" />
        <path
           d="m 409.45678,275.48901 h 3.20435 c 1.04595,0 1.76795,-1.02885 1.4117,-2.0121 -0.46835,-1.2901 -0.71725,-2.6581 -0.71725,-4.0679 0,-1.4098 0.2489,-2.7778 0.71725,-4.0679 0.3572,-0.98325 -0.36575,-2.0121 -1.4117,-2.0121 h -3.20435 c -0.66595,0 -1.2787,0.42655 -1.46395,1.06685 -0.46455,1.6131 -0.71535,3.29175 -0.71535,5.01315 0,1.7214 0.2508,3.40005 0.7163,5.0122 0.1843,0.6403 0.79705,1.0678 1.463,1.0678 z m -5.7969,-16.0227 c 0.5358,-1.0089 -0.18525,-2.2173 -1.3262,-2.2173 h -3.35635 c -0.59565,0 -1.1533,0.34105 -1.4003,0.88445 -1.56655,3.44185 -2.45955,7.2523 -2.45955,11.27555 0,2.35125 0.2964,6.49135 2.53555,11.2917 0.2489,0.53485 0.7999,0.8683 1.38795,0.8683 h 3.3098 c 1.1419,0 1.86295,-1.2103 1.32525,-2.22015 -4.7291,-8.8654 -1.58745,-16.92425 -0.0162,-19.88255 z m 49.7933,-1.33475 c -0.247,-0.54245 -0.8037,-0.88255 -1.39935,-0.88255 h -3.3649 c -1.1381,0 -1.8677,1.2027 -1.3319,2.20875 1.73565,3.25755 4.5999,11.3449 0.0266,19.87685 -0.5434,1.0146 0.171,2.2344 1.32145,2.2344 h 3.34685 c 0.59565,0 1.15235,-0.3401 1.39935,-0.88255 1.57035,-3.44185 2.4662,-7.25325 2.4662,-11.27745 0,-4.0242 -0.8949,-7.8356 -2.4643,-11.27745 z m -11.875,5.19745 h -3.20435 c -1.04595,0 -1.76795,1.02885 -1.4117,2.0121 0.46835,1.2901 0.71725,2.6581 0.71725,4.0679 0,1.4098 -0.2489,2.7778 -0.71725,4.0679 -0.3572,0.98325 0.36575,2.0121 1.4117,2.0121 h 3.20435 c 0.6669,0 1.2787,-0.42655 1.46395,-1.0678 0.4655,-1.61215 0.71535,-3.2908 0.71535,-5.0122 0,-1.7214 -0.2508,-3.40005 -0.7163,-5.0122 -0.1843,-0.64125 -0.79705,-1.0678 -1.463,-1.0678 z m -11.0485,9.5114 c 0.66975,-0.97755 1.064,-2.15745 1.064,-3.4314 0,-3.35825 -2.71985,-6.08 -6.0762,-6.08 -3.3554,0 -6.0762,2.72175 -6.0762,6.08 0,1.27395 0.39425,2.45385 1.064,3.4314 l -12.3975,29.77395 c -0.323,0.77425 0.0437,1.6644 0.81795,1.9874 l 2.80345,1.16945 c 0.77425,0.323 1.6644,-0.0437 1.98645,-0.81795 l 4.67305,-11.22425 h 14.25665 l 4.674,11.22425 c 0.323,0.7752 1.2122,1.14095 1.98645,0.81795 l 2.80345,-1.16945 c 0.77425,-0.323 1.14,-1.21315 0.81795,-1.9874 z m -9.6083,14.8086 4.5961,-11.03805 4.5961,11.03805 z"
           id="path3348"
           inkscape:connector-curvature="0"
           style="fill:#b0b0b0;fill-opacity:1;stroke-width:0.095" />
      </g>
    </g>
    <g
       id="g10761"
       transform="matrix(0.19161542,0,0,0.19161542,-2.1459431,201.48294)"
       style="display:inline">
      <path
         inkscape:connector-curvature="0"
         style="fill:#000000;fill-opacity:1;stroke-width:0.95"
         d="m 224,2 c -67.165,0 -121.59961,54.434608 -121.59961,121.59961 0,0.33436 0.009,0.66628 0.0117,1 -0.003,0.33372 -0.0117,0.66564 -0.0117,1 0,0.33436 0.009,0.66628 0.0117,1 -0.003,0.33372 -0.0117,0.66564 -0.0117,1 0,0.33436 0.009,0.66628 0.0117,1 -0.003,0.33372 -0.0117,0.66564 -0.0117,1 0,0.33436 0.009,0.66628 0.0117,1 -0.003,0.33372 -0.0117,0.66564 -0.0117,1 0,0.33436 0.009,0.66628 0.0117,1 -0.003,0.33372 -0.0117,0.66564 -0.0117,1 0,0.33436 0.009,0.66628 0.0117,1 -0.003,0.33372 -0.0117,0.66564 -0.0117,1 0,0.33436 0.009,0.66628 0.0117,1 -0.003,0.33372 -0.0117,0.66564 -0.0117,1 0,0.33436 0.009,0.66628 0.0117,1 -0.003,0.33372 -0.0117,0.66564 -0.0117,1 0,0.33436 0.009,0.66628 0.0117,1 -0.003,0.33372 -0.0117,0.66564 -0.0117,1 0,67.165 54.43461,121.59961 121.59961,121.59961 67.165,0 121.59961,-54.43461 121.59961,-121.59961 0,-0.33436 -0.009,-0.66628 -0.0117,-1 0.003,-0.33372 0.0117,-0.66564 0.0117,-1 0,-0.33436 -0.009,-0.66628 -0.0117,-1 0.003,-0.33372 0.0117,-0.66564 0.0117,-1 0,-0.33436 -0.009,-0.66628 -0.0117,-1 0.003,-0.33372 0.0117,-0.66564 0.0117,-1 0,-0.33436 -0.009,-0.66628 -0.0117,-1 0.003,-0.33372 0.0117,-0.66564 0.0117,-1 0,-0.33436 -0.009,-0.66628 -0.0117,-1 0.003,-0.33372 0.0117,-0.66564 0.0117,-1 0,-0.33436 -0.009,-0.66628 -0.0117,-1 0.003,-0.33372 0.0117,-0.66564 0.0117,-1 0,-0.33436 -0.009,-0.66628 -0.0117,-1 0.003,-0.33372 0.0117,-0.66564 0.0117,-1 0,-0.33436 -0.009,-0.66628 -0.0117,-1 0.003,-0.33372 0.0117,-0.66564 0.0117,-1 0,-0.33436 -0.009,-0.66628 -0.0117,-1 0.003,-0.33372 0.0117,-0.66564 0.0117,-1 C 345.59961,56.434608 291.165,2 224,2 Z M 132.99023,276.16992 C 65.255238,279.39992 11.199219,334.7843 11.199219,403.2793 v 18 21.52148 2 2 2 2 2 2 2 2 2 c 0,25.175 20.426562,45.59961 45.601562,45.59961 H 391.19922 c 25.175,0 45.60156,-20.42461 45.60156,-45.59961 v -2 -2 -2 -2 -2 -2 -2 -2 -2 -21.52148 -18 c 0,-68.495 -54.05601,-123.87938 -121.79101,-127.10938 L 269.59961,458 243.5,347.06641 h -39 L 178.40039,458 Z"
         id="path7306" />
      <path
         d="m 224,243.2 c 67.165,0 121.6,-54.435 121.6,-121.6 C 345.6,54.435 291.165,0 224,0 156.835,0 102.4,54.435 102.4,121.6 c 0,67.165 54.435,121.6 121.6,121.6 z M 315.01,274.17 269.6,456 239.2,326.8 269.6,273.6 H 178.4 L 208.8,326.8 178.4,456 132.99,274.17 C 65.255,277.4 11.2,332.785 11.2,401.28 v 39.52 c 0,25.175 20.425,45.6 45.6,45.6 h 334.4 c 25.175,0 45.6,-20.425 45.6,-45.6 v -39.52 c 0,-68.495 -54.055,-123.88 -121.79,-127.11 z"
         id="path1534"
         inkscape:connector-curvature="0"
         style="fill:#d0d0d0;fill-opacity:1;stroke-width:0.95" />
      <path
         style="opacity:1;fill:#ffffff;fill-opacity:1;stroke:none;stroke-width:1;stroke-linecap:square;stroke-miterlimit:4;stroke-dasharray:none;stroke-dashoffset:0;stroke-opacity:1"
         d="m 224.11719,272.89258 c -30.84856,-1e-5 -61.38197,0.44231 -91.30664,1.25 v 0.0391 c 0.0601,-0.003 0.11956,-0.009 0.17968,-0.0117 L 178.40039,456 208.80078,326.80078 178.40039,273.59961 h 91.19922 L 239.19922,326.80078 269.59961,456 315.00977,274.16992 c 0.16788,0.008 0.33423,0.0206 0.50195,0.0293 v -0.0547 c -29.94323,-0.80978 -60.50517,-1.25196 -91.39453,-1.25195 z"
         id="path10733"
         inkscape:connector-curvature="0" />
    </g>
    <g
       id="g4284"
       transform="translate(608.49706,-233.4392)"
       style="display:inline">
      <path
         id="path4276"
         d="m 542.8631,233.6392 a 48.64,48.64 0 0 0 -48.63984,48.63984 48.64,48.64 0 0 0 0.008,0.23438 48.64,48.64 0 0 0 -0.008,0.16562 48.64,48.64 0 0 0 0.008,0.23438 48.64,48.64 0 0 0 -0.008,0.16562 48.64,48.64 0 0 0 0.008,0.23438 48.64,48.64 0 0 0 -0.008,0.16562 48.64,48.64 0 0 0 0.008,0.23438 48.64,48.64 0 0 0 -0.008,0.16562 48.64,48.64 0 0 0 0.008,0.23438 48.64,48.64 0 0 0 -0.008,0.16562 48.64,48.64 0 0 0 0.008,0.23438 48.64,48.64 0 0 0 -0.008,0.16562 48.64,48.64 0 0 0 0.008,0.23438 48.64,48.64 0 0 0 -0.008,0.16562 48.64,48.64 0 0 0 0.008,0.23438 48.64,48.64 0 0 0 -0.008,0.16562 48.64,48.64 0 0 0 0.008,0.23438 48.64,48.64 0 0 0 -0.008,0.16562 48.64,48.64 0 0 0 48.63984,48.64024 48.64,48.64 0 0 0 48.63984,-48.64024 48.64,48.64 0 0 0 -0.008,-0.23437 48.64,48.64 0 0 0 0.008,-0.16563 48.64,48.64 0 0 0 -0.008,-0.23437 48.64,48.64 0 0 0 0.008,-0.16563 48.64,48.64 0 0 0 -0.008,-0.23437 48.64,48.64 0 0 0 0.008,-0.16563 48.64,48.64 0 0 0 -0.008,-0.23437 48.64,48.64 0 0 0 0.008,-0.16563 48.64,48.64 0 0 0 -0.008,-0.23437 48.64,48.64 0 0 0 0.008,-0.16563 48.64,48.64 0 0 0 -0.008,-0.23437 48.64,48.64 0 0 0 0.008,-0.16563 48.64,48.64 0 0 0 -0.008,-0.23437 48.64,48.64 0 0 0 0.008,-0.16563 48.64,48.64 0 0 0 -0.008,-0.23437 48.64,48.64 0 0 0 0.008,-0.16563 48.64,48.64 0 0 0 -0.008,-0.23437 48.64,48.64 0 0 0 0.008,-0.16563 48.64,48.64 0 0 0 -48.63984,-48.63984 z"
         style="fill:#000000;fill-opacity:1;stroke:none;stroke-width:0.19;stroke-linecap:square;stroke-miterlimit:4;stroke-dasharray:none;stroke-dashoffset:0;stroke-opacity:1" />
      <g
         id="g4282"
         transform="translate(117.34562,2.27034)">
        <path
           id="path4278"
           d="m 425.51748,231.16886 a 48.64,48.64 0 0 0 -48.63984,48.63984 48.64,48.64 0 0 0 48.63984,48.64024 48.64,48.64 0 0 0 48.63984,-48.64024 48.64,48.64 0 0 0 -48.63984,-48.63984 z m -26.54023,24.08008 h 3.35625 c 1.14095,0 1.86236,1.20829 1.32656,2.21719 -1.57129,2.9583 -4.71309,11.01741 0.016,19.88281 0.53769,1.00985 -0.1835,2.21992 -1.3254,2.21992 h -3.30976 c -0.58805,0 -1.13899,-0.33312 -1.38789,-0.86797 -2.23915,-4.80035 -2.53555,-8.94055 -2.53555,-11.2918 0,-4.02325 0.89283,-7.83393 2.45938,-11.27578 0.24699,-0.5434 0.80474,-0.88437 1.40039,-0.88437 z m 49.71171,0 h 3.36485 c 0.59565,0 1.15222,0.34036 1.39922,0.88281 1.5694,3.44185 2.46445,7.25314 2.46445,11.27734 0,4.0242 -0.89567,7.8355 -2.46602,11.27735 -0.247,0.54245 -0.80395,0.88242 -1.3996,0.88242 h -3.34688 c -1.15045,0 -1.86488,-1.21977 -1.32148,-2.23438 4.5733,-8.53194 1.70908,-16.61901 -0.0266,-19.87656 -0.5358,-1.00605 0.19393,-2.20898 1.33203,-2.20898 z m -39.23203,6.08008 h 3.2043 c 1.04595,0 1.76892,1.02886 1.41172,2.01211 -0.46835,1.2901 -0.71719,2.65816 -0.71719,4.06796 0,1.4098 0.24884,2.77787 0.71719,4.06797 0.35625,0.98325 -0.36577,2.01211 -1.41172,2.01211 h -3.2043 c -0.66595,0 -1.27898,-0.42767 -1.46328,-1.06797 -0.4655,-1.61215 -0.71601,-3.29071 -0.71601,-5.01211 0,-1.7214 0.25068,-3.40018 0.71523,-5.01328 0.18525,-0.6403 0.79811,-1.06679 1.46406,-1.06679 z m 16.06055,0 c 3.35635,0 6.07617,2.72182 6.07617,6.08007 0,1.27395 -0.39431,2.4537 -1.06406,3.43125 l 12.39766,29.77383 c 0.32205,0.77425 -0.0437,1.6645 -0.81797,1.9875 l -2.80352,1.16953 c -0.77425,0.323 -1.66333,-0.0428 -1.98633,-0.81796 l -4.67422,-11.22422 h -14.25664 l -4.67304,11.22422 c -0.32205,0.77424 -1.21208,1.14096 -1.98633,0.81796 l -2.80352,-1.16953 c -0.77425,-0.323 -1.14097,-1.21325 -0.81797,-1.9875 l 12.39766,-29.77383 c -0.66975,-0.97755 -1.06406,-2.1573 -1.06406,-3.43125 0,-3.35825 2.72077,-6.08007 6.07617,-6.08007 z m 12.85625,0 h 3.2043 c 0.66595,0 1.27898,0.42671 1.46328,1.06796 0.4655,1.61215 0.71601,3.29071 0.71601,5.01211 0,1.7214 -0.24973,3.39996 -0.71523,5.01211 -0.18525,0.64125 -0.79716,1.06797 -1.46406,1.06797 h -3.2043 c -1.04595,0 -1.76892,-1.02886 -1.41172,-2.01211 0.46835,-1.2901 0.71719,-2.65817 0.71719,-4.06797 0,-1.4098 -0.24884,-2.77786 -0.71719,-4.06796 -0.35625,-0.98325 0.36577,-2.01211 1.41172,-2.01211 z m -12.85625,13.28203 -4.59609,11.03789 h 9.19218 z"
           style="fill:#d0d0d0;fill-opacity:1;stroke:none;stroke-width:0.19;stroke-linecap:square;stroke-miterlimit:4;stroke-dasharray:none;stroke-dashoffset:0;stroke-opacity:1" />
        <path
           d="m 409.45678,275.48901 h 3.20435 c 1.04595,0 1.76795,-1.02885 1.4117,-2.0121 -0.46835,-1.2901 -0.71725,-2.6581 -0.71725,-4.0679 0,-1.4098 0.2489,-2.7778 0.71725,-4.0679 0.3572,-0.98325 -0.36575,-2.0121 -1.4117,-2.0121 h -3.20435 c -0.66595,0 -1.2787,0.42655 -1.46395,1.06685 -0.46455,1.6131 -0.71535,3.29175 -0.71535,5.01315 0,1.7214 0.2508,3.40005 0.7163,5.0122 0.1843,0.6403 0.79705,1.0678 1.463,1.0678 z m -5.7969,-16.0227 c 0.5358,-1.0089 -0.18525,-2.2173 -1.3262,-2.2173 h -3.35635 c -0.59565,0 -1.1533,0.34105 -1.4003,0.88445 -1.56655,3.44185 -2.45955,7.2523 -2.45955,11.27555 0,2.35125 0.2964,6.49135 2.53555,11.2917 0.2489,0.53485 0.7999,0.8683 1.38795,0.8683 h 3.3098 c 1.1419,0 1.86295,-1.2103 1.32525,-2.22015 -4.7291,-8.8654 -1.58745,-16.92425 -0.0162,-19.88255 z m 49.7933,-1.33475 c -0.247,-0.54245 -0.8037,-0.88255 -1.39935,-0.88255 h -3.3649 c -1.1381,0 -1.8677,1.2027 -1.3319,2.20875 1.73565,3.25755 4.5999,11.3449 0.0266,19.87685 -0.5434,1.0146 0.171,2.2344 1.32145,2.2344 h 3.34685 c 0.59565,0 1.15235,-0.3401 1.39935,-0.88255 1.57035,-3.44185 2.4662,-7.25325 2.4662,-11.27745 0,-4.0242 -0.8949,-7.8356 -2.4643,-11.27745 z m -11.875,5.19745 h -3.20435 c -1.04595,0 -1.76795,1.02885 -1.4117,2.0121 0.46835,1.2901 0.71725,2.6581 0.71725,4.0679 0,1.4098 -0.2489,2.7778 -0.71725,4.0679 -0.3572,0.98325 0.36575,2.0121 1.4117,2.0121 h 3.20435 c 0.6669,0 1.2787,-0.42655 1.46395,-1.0678 0.4655,-1.61215 0.71535,-3.2908 0.71535,-5.0122 0,-1.7214 -0.2508,-3.40005 -0.7163,-5.0122 -0.1843,-0.64125 -0.79705,-1.0678 -1.463,-1.0678 z m -11.0485,9.5114 c 0.66975,-0.97755 1.064,-2.15745 1.064,-3.4314 0,-3.35825 -2.71985,-6.08 -6.0762,-6.08 -3.3554,0 -6.0762,2.72175 -6.0762,6.08 0,1.27395 0.39425,2.45385 1.064,3.4314 l -12.3975,29.77395 c -0.323,0.77425 0.0437,1.6644 0.81795,1.9874 l 2.80345,1.16945 c 0.77425,0.323 1.6644,-0.0437 1.98645,-0.81795 l 4.67305,-11.22425 h 14.25665 l 4.674,11.22425 c 0.323,0.7752 1.2122,1.14095 1.98645,0.81795 l 2.80345,-1.16945 c 0.77425,-0.323 1.14,-1.21315 0.81795,-1.9874 z m -9.6083,14.8086 4.5961,-11.03805 4.5961,11.03805 z"
           id="path4280"
           inkscape:connector-curvature="0"
           style="fill:#b0b0b0;fill-opacity:1;stroke-width:0.095" />
      </g>
    </g>
    <g
       id="g4294"
       transform="translate(608.49706,-33.97924)"
       style="display:inline">
      <path
         id="path4286"
         d="m 542.8631,233.6392 a 48.64,48.64 0 0 0 -48.63984,48.63984 48.64,48.64 0 0 0 0.008,0.23438 48.64,48.64 0 0 0 -0.008,0.16562 48.64,48.64 0 0 0 0.008,0.23438 48.64,48.64 0 0 0 -0.008,0.16562 48.64,48.64 0 0 0 0.008,0.23438 48.64,48.64 0 0 0 -0.008,0.16562 48.64,48.64 0 0 0 0.008,0.23438 48.64,48.64 0 0 0 -0.008,0.16562 48.64,48.64 0 0 0 0.008,0.23438 48.64,48.64 0 0 0 -0.008,0.16562 48.64,48.64 0 0 0 0.008,0.23438 48.64,48.64 0 0 0 -0.008,0.16562 48.64,48.64 0 0 0 0.008,0.23438 48.64,48.64 0 0 0 -0.008,0.16562 48.64,48.64 0 0 0 0.008,0.23438 48.64,48.64 0 0 0 -0.008,0.16562 48.64,48.64 0 0 0 0.008,0.23438 48.64,48.64 0 0 0 -0.008,0.16562 48.64,48.64 0 0 0 48.63984,48.64024 48.64,48.64 0 0 0 48.63984,-48.64024 48.64,48.64 0 0 0 -0.008,-0.23437 48.64,48.64 0 0 0 0.008,-0.16563 48.64,48.64 0 0 0 -0.008,-0.23437 48.64,48.64 0 0 0 0.008,-0.16563 48.64,48.64 0 0 0 -0.008,-0.23437 48.64,48.64 0 0 0 0.008,-0.16563 48.64,48.64 0 0 0 -0.008,-0.23437 48.64,48.64 0 0 0 0.008,-0.16563 48.64,48.64 0 0 0 -0.008,-0.23437 48.64,48.64 0 0 0 0.008,-0.16563 48.64,48.64 0 0 0 -0.008,-0.23437 48.64,48.64 0 0 0 0.008,-0.16563 48.64,48.64 0 0 0 -0.008,-0.23437 48.64,48.64 0 0 0 0.008,-0.16563 48.64,48.64 0 0 0 -0.008,-0.23437 48.64,48.64 0 0 0 0.008,-0.16563 48.64,48.64 0 0 0 -0.008,-0.23437 48.64,48.64 0 0 0 0.008,-0.16563 48.64,48.64 0 0 0 -48.63984,-48.63984 z"
         style="fill:#000000;fill-opacity:1;stroke:none;stroke-width:0.19;stroke-linecap:square;stroke-miterlimit:4;stroke-dasharray:none;stroke-dashoffset:0;stroke-opacity:1" />
      <g
         id="g4292"
         transform="translate(117.34562,2.27034)">
        <path
           id="path4288"
           d="m 425.51748,231.16886 a 48.64,48.64 0 0 0 -48.63984,48.63984 48.64,48.64 0 0 0 48.63984,48.64024 48.64,48.64 0 0 0 48.63984,-48.64024 48.64,48.64 0 0 0 -48.63984,-48.63984 z m -26.54023,24.08008 h 3.35625 c 1.14095,0 1.86236,1.20829 1.32656,2.21719 -1.57129,2.9583 -4.71309,11.01741 0.016,19.88281 0.53769,1.00985 -0.1835,2.21992 -1.3254,2.21992 h -3.30976 c -0.58805,0 -1.13899,-0.33312 -1.38789,-0.86797 -2.23915,-4.80035 -2.53555,-8.94055 -2.53555,-11.2918 0,-4.02325 0.89283,-7.83393 2.45938,-11.27578 0.24699,-0.5434 0.80474,-0.88437 1.40039,-0.88437 z m 49.71171,0 h 3.36485 c 0.59565,0 1.15222,0.34036 1.39922,0.88281 1.5694,3.44185 2.46445,7.25314 2.46445,11.27734 0,4.0242 -0.89567,7.8355 -2.46602,11.27735 -0.247,0.54245 -0.80395,0.88242 -1.3996,0.88242 h -3.34688 c -1.15045,0 -1.86488,-1.21977 -1.32148,-2.23438 4.5733,-8.53194 1.70908,-16.61901 -0.0266,-19.87656 -0.5358,-1.00605 0.19393,-2.20898 1.33203,-2.20898 z m -39.23203,6.08008 h 3.2043 c 1.04595,0 1.76892,1.02886 1.41172,2.01211 -0.46835,1.2901 -0.71719,2.65816 -0.71719,4.06796 0,1.4098 0.24884,2.77787 0.71719,4.06797 0.35625,0.98325 -0.36577,2.01211 -1.41172,2.01211 h -3.2043 c -0.66595,0 -1.27898,-0.42767 -1.46328,-1.06797 -0.4655,-1.61215 -0.71601,-3.29071 -0.71601,-5.01211 0,-1.7214 0.25068,-3.40018 0.71523,-5.01328 0.18525,-0.6403 0.79811,-1.06679 1.46406,-1.06679 z m 16.06055,0 c 3.35635,0 6.07617,2.72182 6.07617,6.08007 0,1.27395 -0.39431,2.4537 -1.06406,3.43125 l 12.39766,29.77383 c 0.32205,0.77425 -0.0437,1.6645 -0.81797,1.9875 l -2.80352,1.16953 c -0.77425,0.323 -1.66333,-0.0428 -1.98633,-0.81796 l -4.67422,-11.22422 h -14.25664 l -4.67304,11.22422 c -0.32205,0.77424 -1.21208,1.14096 -1.98633,0.81796 l -2.80352,-1.16953 c -0.77425,-0.323 -1.14097,-1.21325 -0.81797,-1.9875 l 12.39766,-29.77383 c -0.66975,-0.97755 -1.06406,-2.1573 -1.06406,-3.43125 0,-3.35825 2.72077,-6.08007 6.07617,-6.08007 z m 12.85625,0 h 3.2043 c 0.66595,0 1.27898,0.42671 1.46328,1.06796 0.4655,1.61215 0.71601,3.29071 0.71601,5.01211 0,1.7214 -0.24973,3.39996 -0.71523,5.01211 -0.18525,0.64125 -0.79716,1.06797 -1.46406,1.06797 h -3.2043 c -1.04595,0 -1.76892,-1.02886 -1.41172,-2.01211 0.46835,-1.2901 0.71719,-2.65817 0.71719,-4.06797 0,-1.4098 -0.24884,-2.77786 -0.71719,-4.06796 -0.35625,-0.98325 0.36577,-2.01211 1.41172,-2.01211 z m -12.85625,13.28203 -4.59609,11.03789 h 9.19218 z"
           style="fill:#d0d0d0;fill-opacity:1;stroke:none;stroke-width:0.19;stroke-linecap:square;stroke-miterlimit:4;stroke-dasharray:none;stroke-dashoffset:0;stroke-opacity:1" />
        <path
           d="m 409.45678,275.48901 h 3.20435 c 1.04595,0 1.76795,-1.02885 1.4117,-2.0121 -0.46835,-1.2901 -0.71725,-2.6581 -0.71725,-4.0679 0,-1.4098 0.2489,-2.7778 0.71725,-4.0679 0.3572,-0.98325 -0.36575,-2.0121 -1.4117,-2.0121 h -3.20435 c -0.66595,0 -1.2787,0.42655 -1.46395,1.06685 -0.46455,1.6131 -0.71535,3.29175 -0.71535,5.01315 0,1.7214 0.2508,3.40005 0.7163,5.0122 0.1843,0.6403 0.79705,1.0678 1.463,1.0678 z m -5.7969,-16.0227 c 0.5358,-1.0089 -0.18525,-2.2173 -1.3262,-2.2173 h -3.35635 c -0.59565,0 -1.1533,0.34105 -1.4003,0.88445 -1.56655,3.44185 -2.45955,7.2523 -2.45955,11.27555 0,2.35125 0.2964,6.49135 2.53555,11.2917 0.2489,0.53485 0.7999,0.8683 1.38795,0.8683 h 3.3098 c 1.1419,0 1.86295,-1.2103 1.32525,-2.22015 -4.7291,-8.8654 -1.58745,-16.92425 -0.0162,-19.88255 z m 49.7933,-1.33475 c -0.247,-0.54245 -0.8037,-0.88255 -1.39935,-0.88255 h -3.3649 c -1.1381,0 -1.8677,1.2027 -1.3319,2.20875 1.73565,3.25755 4.5999,11.3449 0.0266,19.87685 -0.5434,1.0146 0.171,2.2344 1.32145,2.2344 h 3.34685 c 0.59565,0 1.15235,-0.3401 1.39935,-0.88255 1.57035,-3.44185 2.4662,-7.25325 2.4662,-11.27745 0,-4.0242 -0.8949,-7.8356 -2.4643,-11.27745 z m -11.875,5.19745 h -3.20435 c -1.04595,0 -1.76795,1.02885 -1.4117,2.0121 0.46835,1.2901 0.71725,2.6581 0.71725,4.0679 0,1.4098 -0.2489,2.7778 -0.71725,4.0679 -0.3572,0.98325 0.36575,2.0121 1.4117,2.0121 h 3.20435 c 0.6669,0 1.2787,-0.42655 1.46395,-1.0678 0.4655,-1.61215 0.71535,-3.2908 0.71535,-5.0122 0,-1.7214 -0.2508,-3.40005 -0.7163,-5.0122 -0.1843,-0.64125 -0.79705,-1.0678 -1.463,-1.0678 z m -11.0485,9.5114 c 0.66975,-0.97755 1.064,-2.15745 1.064,-3.4314 0,-3.35825 -2.71985,-6.08 -6.0762,-6.08 -3.3554,0 -6.0762,2.72175 -6.0762,6.08 0,1.27395 0.39425,2.45385 1.064,3.4314 l -12.3975,29.77395 c -0.323,0.77425 0.0437,1.6644 0.81795,1.9874 l 2.80345,1.16945 c 0.77425,0.323 1.6644,-0.0437 1.98645,-0.81795 l 4.67305,-11.22425 h 14.25665 l 4.674,11.22425 c 0.323,0.7752 1.2122,1.14095 1.98645,0.81795 l 2.80345,-1.16945 c 0.77425,-0.323 1.14,-1.21315 0.81795,-1.9874 z m -9.6083,14.8086 4.5961,-11.03805 4.5961,11.03805 z"
           id="path4290"
           inkscape:connector-curvature="0"
           style="fill:#b0b0b0;fill-opacity:1;stroke-width:0.095" />
      </g>
    </g>
    <g
       id="g4304"
       transform="translate(608.49706,165.48072)"
       style="display:inline">
      <path
         id="path4296"
         d="m 542.8631,233.6392 a 48.64,48.64 0 0 0 -48.63984,48.63984 48.64,48.64 0 0 0 0.008,0.23438 48.64,48.64 0 0 0 -0.008,0.16562 48.64,48.64 0 0 0 0.008,0.23438 48.64,48.64 0 0 0 -0.008,0.16562 48.64,48.64 0 0 0 0.008,0.23438 48.64,48.64 0 0 0 -0.008,0.16562 48.64,48.64 0 0 0 0.008,0.23438 48.64,48.64 0 0 0 -0.008,0.16562 48.64,48.64 0 0 0 0.008,0.23438 48.64,48.64 0 0 0 -0.008,0.16562 48.64,48.64 0 0 0 0.008,0.23438 48.64,48.64 0 0 0 -0.008,0.16562 48.64,48.64 0 0 0 0.008,0.23438 48.64,48.64 0 0 0 -0.008,0.16562 48.64,48.64 0 0 0 0.008,0.23438 48.64,48.64 0 0 0 -0.008,0.16562 48.64,48.64 0 0 0 0.008,0.23438 48.64,48.64 0 0 0 -0.008,0.16562 48.64,48.64 0 0 0 48.63984,48.64024 48.64,48.64 0 0 0 48.63984,-48.64024 48.64,48.64 0 0 0 -0.008,-0.23437 48.64,48.64 0 0 0 0.008,-0.16563 48.64,48.64 0 0 0 -0.008,-0.23437 48.64,48.64 0 0 0 0.008,-0.16563 48.64,48.64 0 0 0 -0.008,-0.23437 48.64,48.64 0 0 0 0.008,-0.16563 48.64,48.64 0 0 0 -0.008,-0.23437 48.64,48.64 0 0 0 0.008,-0.16563 48.64,48.64 0 0 0 -0.008,-0.23437 48.64,48.64 0 0 0 0.008,-0.16563 48.64,48.64 0 0 0 -0.008,-0.23437 48.64,48.64 0 0 0 0.008,-0.16563 48.64,48.64 0 0 0 -0.008,-0.23437 48.64,48.64 0 0 0 0.008,-0.16563 48.64,48.64 0 0 0 -0.008,-0.23437 48.64,48.64 0 0 0 0.008,-0.16563 48.64,48.64 0 0 0 -0.008,-0.23437 48.64,48.64 0 0 0 0.008,-0.16563 48.64,48.64 0 0 0 -48.63984,-48.63984 z"
         style="fill:#000000;fill-opacity:1;stroke:none;stroke-width:0.19;stroke-linecap:square;stroke-miterlimit:4;stroke-dasharray:none;stroke-dashoffset:0;stroke-opacity:1" />
      <g
         id="g4302"
         transform="translate(117.34562,2.27034)">
        <path
           id="path4298"
           d="m 425.51748,231.16886 a 48.64,48.64 0 0 0 -48.63984,48.63984 48.64,48.64 0 0 0 48.63984,48.64024 48.64,48.64 0 0 0 48.63984,-48.64024 48.64,48.64 0 0 0 -48.63984,-48.63984 z m -26.54023,24.08008 h 3.35625 c 1.14095,0 1.86236,1.20829 1.32656,2.21719 -1.57129,2.9583 -4.71309,11.01741 0.016,19.88281 0.53769,1.00985 -0.1835,2.21992 -1.3254,2.21992 h -3.30976 c -0.58805,0 -1.13899,-0.33312 -1.38789,-0.86797 -2.23915,-4.80035 -2.53555,-8.94055 -2.53555,-11.2918 0,-4.02325 0.89283,-7.83393 2.45938,-11.27578 0.24699,-0.5434 0.80474,-0.88437 1.40039,-0.88437 z m 49.71171,0 h 3.36485 c 0.59565,0 1.15222,0.34036 1.39922,0.88281 1.5694,3.44185 2.46445,7.25314 2.46445,11.27734 0,4.0242 -0.89567,7.8355 -2.46602,11.27735 -0.247,0.54245 -0.80395,0.88242 -1.3996,0.88242 h -3.34688 c -1.15045,0 -1.86488,-1.21977 -1.32148,-2.23438 4.5733,-8.53194 1.70908,-16.61901 -0.0266,-19.87656 -0.5358,-1.00605 0.19393,-2.20898 1.33203,-2.20898 z m -39.23203,6.08008 h 3.2043 c 1.04595,0 1.76892,1.02886 1.41172,2.01211 -0.46835,1.2901 -0.71719,2.65816 -0.71719,4.06796 0,1.4098 0.24884,2.77787 0.71719,4.06797 0.35625,0.98325 -0.36577,2.01211 -1.41172,2.01211 h -3.2043 c -0.66595,0 -1.27898,-0.42767 -1.46328,-1.06797 -0.4655,-1.61215 -0.71601,-3.29071 -0.71601,-5.01211 0,-1.7214 0.25068,-3.40018 0.71523,-5.01328 0.18525,-0.6403 0.79811,-1.06679 1.46406,-1.06679 z m 16.06055,0 c 3.35635,0 6.07617,2.72182 6.07617,6.08007 0,1.27395 -0.39431,2.4537 -1.06406,3.43125 l 12.39766,29.77383 c 0.32205,0.77425 -0.0437,1.6645 -0.81797,1.9875 l -2.80352,1.16953 c -0.77425,0.323 -1.66333,-0.0428 -1.98633,-0.81796 l -4.67422,-11.22422 h -14.25664 l -4.67304,11.22422 c -0.32205,0.77424 -1.21208,1.14096 -1.98633,0.81796 l -2.80352,-1.16953 c -0.77425,-0.323 -1.14097,-1.21325 -0.81797,-1.9875 l 12.39766,-29.77383 c -0.66975,-0.97755 -1.06406,-2.1573 -1.06406,-3.43125 0,-3.35825 2.72077,-6.08007 6.07617,-6.08007 z m 12.85625,0 h 3.2043 c 0.66595,0 1.27898,0.42671 1.46328,1.06796 0.4655,1.61215 0.71601,3.29071 0.71601,5.01211 0,1.7214 -0.24973,3.39996 -0.71523,5.01211 -0.18525,0.64125 -0.79716,1.06797 -1.46406,1.06797 h -3.2043 c -1.04595,0 -1.76892,-1.02886 -1.41172,-2.01211 0.46835,-1.2901 0.71719,-2.65817 0.71719,-4.06797 0,-1.4098 -0.24884,-2.77786 -0.71719,-4.06796 -0.35625,-0.98325 0.36577,-2.01211 1.41172,-2.01211 z m -12.85625,13.28203 -4.59609,11.03789 h 9.19218 z"
           style="fill:#d0d0d0;fill-opacity:1;stroke:none;stroke-width:0.19;stroke-linecap:square;stroke-miterlimit:4;stroke-dasharray:none;stroke-dashoffset:0;stroke-opacity:1" />
        <path
           d="m 409.45678,275.48901 h 3.20435 c 1.04595,0 1.76795,-1.02885 1.4117,-2.0121 -0.46835,-1.2901 -0.71725,-2.6581 -0.71725,-4.0679 0,-1.4098 0.2489,-2.7778 0.71725,-4.0679 0.3572,-0.98325 -0.36575,-2.0121 -1.4117,-2.0121 h -3.20435 c -0.66595,0 -1.2787,0.42655 -1.46395,1.06685 -0.46455,1.6131 -0.71535,3.29175 -0.71535,5.01315 0,1.7214 0.2508,3.40005 0.7163,5.0122 0.1843,0.6403 0.79705,1.0678 1.463,1.0678 z m -5.7969,-16.0227 c 0.5358,-1.0089 -0.18525,-2.2173 -1.3262,-2.2173 h -3.35635 c -0.59565,0 -1.1533,0.34105 -1.4003,0.88445 -1.56655,3.44185 -2.45955,7.2523 -2.45955,11.27555 0,2.35125 0.2964,6.49135 2.53555,11.2917 0.2489,0.53485 0.7999,0.8683 1.38795,0.8683 h 3.3098 c 1.1419,0 1.86295,-1.2103 1.32525,-2.22015 -4.7291,-8.8654 -1.58745,-16.92425 -0.0162,-19.88255 z m 49.7933,-1.33475 c -0.247,-0.54245 -0.8037,-0.88255 -1.39935,-0.88255 h -3.3649 c -1.1381,0 -1.8677,1.2027 -1.3319,2.20875 1.73565,3.25755 4.5999,11.3449 0.0266,19.87685 -0.5434,1.0146 0.171,2.2344 1.32145,2.2344 h 3.34685 c 0.59565,0 1.15235,-0.3401 1.39935,-0.88255 1.57035,-3.44185 2.4662,-7.25325 2.4662,-11.27745 0,-4.0242 -0.8949,-7.8356 -2.4643,-11.27745 z m -11.875,5.19745 h -3.20435 c -1.04595,0 -1.76795,1.02885 -1.4117,2.0121 0.46835,1.2901 0.71725,2.6581 0.71725,4.0679 0,1.4098 -0.2489,2.7778 -0.71725,4.0679 -0.3572,0.98325 0.36575,2.0121 1.4117,2.0121 h 3.20435 c 0.6669,0 1.2787,-0.42655 1.46395,-1.0678 0.4655,-1.61215 0.71535,-3.2908 0.71535,-5.0122 0,-1.7214 -0.2508,-3.40005 -0.7163,-5.0122 -0.1843,-0.64125 -0.79705,-1.0678 -1.463,-1.0678 z m -11.0485,9.5114 c 0.66975,-0.97755 1.064,-2.15745 1.064,-3.4314 0,-3.35825 -2.71985,-6.08 -6.0762,-6.08 -3.3554,0 -6.0762,2.72175 -6.0762,6.08 0,1.27395 0.39425,2.45385 1.064,3.4314 l -12.3975,29.77395 c -0.323,0.77425 0.0437,1.6644 0.81795,1.9874 l 2.80345,1.16945 c 0.77425,0.323 1.6644,-0.0437 1.98645,-0.81795 l 4.67305,-11.22425 h 14.25665 l 4.674,11.22425 c 0.323,0.7752 1.2122,1.14095 1.98645,0.81795 l 2.80345,-1.16945 c 0.77425,-0.323 1.14,-1.21315 0.81795,-1.9874 z m -9.6083,14.8086 4.5961,-11.03805 4.5961,11.03805 z"
           id="path4300"
           inkscape:connector-curvature="0"
           style="fill:#b0b0b0;fill-opacity:1;stroke-width:0.095" />
      </g>
    </g>
    <path
       style="display:inline;fill:none;stroke:#d0d0d0;stroke-width:4;stroke-linecap:butt;stroke-linejoin:miter;stroke-miterlimit:4;stroke-dasharray:none;stroke-opacity:1;marker-end:url(#marker4440)"
       d="M 657.63833,252.24403 H 804.3783"
       id="path6146"
       sodipodi:nodetypes="cc" />
    <path
       style="display:inline;fill:none;stroke:#d0d0d0;stroke-width:4;stroke-linecap:butt;stroke-linejoin:miter;stroke-miterlimit:4;stroke-dasharray:none;stroke-opacity:1;marker-end:url(#marker4440)"
       d="M 935.28443,252.24403 H 1082.0244"
       id="path6247"
       sodipodi:nodetypes="cc" />
    <path
       style="display:inline;fill:none;stroke:#d0d0d0;stroke-width:4;stroke-linecap:butt;stroke-linejoin:miter;stroke-miterlimit:4;stroke-dasharray:none;stroke-opacity:1;marker-end:url(#marker4440)"
       d="M 936.44494,192.24403 1083.1849,97.693151"
       id="path6249"
       sodipodi:nodetypes="cc" />
    <path
       style="display:inline;fill:none;stroke:#d0d0d0;stroke-width:4;stroke-linecap:butt;stroke-linejoin:miter;stroke-miterlimit:4;stroke-dasharray:none;stroke-opacity:1;marker-end:url(#marker4440)"
       d="M 936.65042,312.24403 1083.3904,421.52638"
       id="path6251"
       sodipodi:nodetypes="cc" />
    <text
       xml:space="preserve"
       style="font-size:18.6667px;line-height:1.25;font-family:Lato;-inkscape-font-specification:Lato;fill:#b0b0b0;fill-opacity:1;stroke:none;stroke-opacity:1"
       x="873.41541"
       y="317.23297"
       id="text8140"><tspan
         sodipodi:role="line"
         id="tspan8138"
         x="873.41541"
         y="317.23297"
         style="text-align:center;text-anchor:middle;fill:#b0b0b0;fill-opacity:1;stroke:none;stroke-opacity:1">Local</tspan><tspan
         sodipodi:role="line"
         x="873.41541"
         y="340.56635"
         style="text-align:center;text-anchor:middle;fill:#b0b0b0;fill-opacity:1;stroke:none;stroke-opacity:1"
         id="tspan11236">consensus node</tspan></text>
    <text
       xml:space="preserve"
       style="font-size:18.6667px;line-height:1.25;font-family:Lato;-inkscape-font-specification:Lato;fill:#b0b0b0;fill-opacity:1;stroke:none;stroke-opacity:1"
       x="1151.2808"
       y="145.29068"
       id="text11322"><tspan
         sodipodi:role="line"
         x="1151.2808"
         y="145.29068"
         style="text-align:center;text-anchor:middle;fill:#b0b0b0;fill-opacity:1;stroke:none;stroke-opacity:1"
         id="tspan11320">Consensus</tspan><tspan
         sodipodi:role="line"
         x="1151.2808"
         y="168.62405"
         style="text-align:center;text-anchor:middle;fill:#b0b0b0;fill-opacity:1;stroke:none;stroke-opacity:1"
         id="tspan12530">network</tspan></text>
    <text
       xml:space="preserve"
       style="font-size:18.6667px;line-height:1.25;font-family:Lato;-inkscape-font-specification:Lato;fill:#b0b0b0;fill-opacity:1;stroke:none;stroke-opacity:1"
       x="1151.2808"
       y="344.75064"
       id="text12616"><tspan
         sodipodi:role="line"
         x="1151.2808"
         y="344.75064"
         style="text-align:center;text-anchor:middle;fill:#b0b0b0;fill-opacity:1;stroke:none;stroke-opacity:1"
         id="tspan12612">Consensus</tspan><tspan
         sodipodi:role="line"
         x="1151.2808"
         y="368.08401"
         style="text-align:center;text-anchor:middle;fill:#b0b0b0;fill-opacity:1;stroke:none;stroke-opacity:1"
         id="tspan12614">network</tspan></text>
    <text
       xml:space="preserve"
       style="font-size:18.6667px;line-height:1.25;font-family:Lato;-inkscape-font-specification:Lato;display:inline;fill:#b0b0b0;fill-opacity:1;stroke:none;stroke-opacity:1"
       x="40.075897"
       y="321.42487"
       id="text12622"><tspan
         sodipodi:role="line"
         x="40.075897"
         y="321.42487"
         style="text-align:center;text-anchor:middle;fill:#b0b0b0;fill-opacity:1;stroke:none;stroke-opacity:1"
         id="tspan14902">User</tspan></text>
    <g
       id="g27545"
       transform="translate(2.7996094e-5,147.10741)"
       style="display:inline">
      <path
         id="path27529"
         d="m 596.06796,54.89213 a 48.64,48.64 0 0 0 -48.63984,48.63984 48.64,48.64 0 0 0 0.008,0.23438 48.64,48.64 0 0 0 -0.008,0.16562 48.64,48.64 0 0 0 0.008,0.23438 48.64,48.64 0 0 0 -0.008,0.16562 48.64,48.64 0 0 0 0.008,0.23438 48.64,48.64 0 0 0 -0.008,0.16562 48.64,48.64 0 0 0 0.008,0.23438 48.64,48.64 0 0 0 -0.008,0.16562 48.64,48.64 0 0 0 0.008,0.23438 48.64,48.64 0 0 0 -0.008,0.16562 48.64,48.64 0 0 0 0.008,0.23438 48.64,48.64 0 0 0 -0.008,0.16562 48.64,48.64 0 0 0 0.008,0.23438 48.64,48.64 0 0 0 -0.008,0.16562 48.64,48.64 0 0 0 0.008,0.23438 48.64,48.64 0 0 0 -0.008,0.16562 48.64,48.64 0 0 0 0.008,0.23438 48.64,48.64 0 0 0 -0.008,0.16562 48.64,48.64 0 0 0 48.63984,48.64024 48.64,48.64 0 0 0 48.63984,-48.64024 48.64,48.64 0 0 0 -0.008,-0.23437 48.64,48.64 0 0 0 0.008,-0.16563 48.64,48.64 0 0 0 -0.008,-0.23437 48.64,48.64 0 0 0 0.008,-0.16563 48.64,48.64 0 0 0 -0.008,-0.23437 48.64,48.64 0 0 0 0.008,-0.16563 48.64,48.64 0 0 0 -0.008,-0.23437 48.64,48.64 0 0 0 0.008,-0.16563 48.64,48.64 0 0 0 -0.008,-0.23437 48.64,48.64 0 0 0 0.008,-0.16563 48.64,48.64 0 0 0 -0.008,-0.23437 48.64,48.64 0 0 0 0.008,-0.16563 48.64,48.64 0 0 0 -0.008,-0.23437 48.64,48.64 0 0 0 0.008,-0.16563 48.64,48.64 0 0 0 -0.008,-0.23437 48.64,48.64 0 0 0 0.008,-0.16563 48.64,48.64 0 0 0 -0.008,-0.23437 48.64,48.64 0 0 0 0.008,-0.16563 48.64,48.64 0 0 0 -48.63984,-48.63984 z"
         style="fill:#000000;fill-opacity:1;stroke:none;stroke-width:0.19;stroke-linecap:square;stroke-miterlimit:4;stroke-dasharray:none;stroke-dashoffset:0;stroke-opacity:1" />
      <circle
         r="48.639999"
         cy="103.13213"
         cx="596.06799"
         id="circle27531"
         style="fill:#d0d0d0;fill-opacity:1;stroke:none;stroke-width:0.19;stroke-linecap:square;stroke-miterlimit:4;stroke-dasharray:none;stroke-dashoffset:0;stroke-opacity:1" />
      <g
         id="g27537"
         transform="translate(-165.65975,5.478358)">
        <path
           d="m 780.23799,97.443192 a 2.8922269,2.8922269 0 0 0 -3.15252,0.54952 l -14.92389,14.056218 a 0.69413446,0.69413446 0 0 1 -0.98336,0 l -14.8082,-14.027298 a 2.8922269,2.8922269 0 0 0 -4.88787,2.082398 v 13.767 a 2.8922269,2.8922269 0 0 0 0.89659,2.11133 l 17.35337,16.37 a 2.8922269,2.8922269 0 0 0 3.99127,0 l 17.35336,-16.37 a 2.8922269,2.8922269 0 0 0 0.89659,-2.11133 v -13.767 a 2.8922269,2.8922269 0 0 0 -1.73534,-2.660838 z"
           fill="#000000"
           id="path27533"
           style="fill:#000000;fill-opacity:1;stroke-width:2.89223" />
        <path
           d="m 780.23799,66.409593 a 2.8922269,2.8922269 0 0 0 -3.15252,0.520601 l -14.92389,14.056222 a 0.72305672,0.72305672 0 0 1 -0.98336,0 l -14.8082,-14.0273 a 2.8922269,2.8922269 0 0 0 -4.88787,2.111325 v 13.767001 a 2.8922269,2.8922269 0 0 0 0.89659,2.082403 l 17.35337,16.370005 a 2.8922269,2.8922269 0 0 0 1.99563,0.80982 2.8922269,2.8922269 0 0 0 1.99564,-0.80982 l 17.35336,-16.370005 a 2.8922269,2.8922269 0 0 0 0.89659,-2.111326 v -13.767 a 2.8922269,2.8922269 0 0 0 -1.73534,-2.631926 z"
           fill="#000000"
           id="path27535"
           style="fill:#000000;fill-opacity:1;stroke-width:2.89223" />
      </g>
      <g
         id="g27543">
        <path
           d="m 614.57824,100.92155 a 2.8922269,2.8922269 0 0 0 -3.15252,0.54952 l -14.92389,14.05622 a 0.69413446,0.69413446 0 0 1 -0.98336,0 l -14.8082,-14.0273 a 2.8922269,2.8922269 0 0 0 -4.88787,2.0824 v 13.767 a 2.8922269,2.8922269 0 0 0 0.89659,2.11133 l 17.35337,16.37 a 2.8922269,2.8922269 0 0 0 3.99127,0 l 17.35336,-16.37 a 2.8922269,2.8922269 0 0 0 0.89659,-2.11133 v -13.767 a 2.8922269,2.8922269 0 0 0 -1.73534,-2.66084 z"
           fill="#000000"
           id="path27539"
           style="fill:#b0b0b0;fill-opacity:1;stroke-width:2.89223" />
        <path
           d="m 614.57824,69.887949 a 2.8922269,2.8922269 0 0 0 -3.15252,0.520601 l -14.92389,14.056222 a 0.72305672,0.72305672 0 0 1 -0.98336,0 l -14.8082,-14.0273 a 2.8922269,2.8922269 0 0 0 -4.88787,2.111325 v 13.767001 a 2.8922269,2.8922269 0 0 0 0.89659,2.082403 l 17.35337,16.370009 a 2.8922269,2.8922269 0 0 0 1.99563,0.80982 2.8922269,2.8922269 0 0 0 1.99564,-0.80982 l 17.35336,-16.370009 a 2.8922269,2.8922269 0 0 0 0.89659,-2.111326 v -13.767 a 2.8922269,2.8922269 0 0 0 -1.73534,-2.631926 z"
           fill="#000000"
           id="path27541"
           style="fill:#b0b0b0;fill-opacity:1;stroke-width:2.89223" />
      </g>
    </g>
  </g>
  <g
     inkscape:groupmode="layer"
     id="layer9"
     inkscape:label="Online withdrawal credentials change"
     style="display:inline">
    <path
       style="fill:none;stroke:#d0d0d0;stroke-width:4;stroke-linecap:butt;stroke-linejoin:miter;stroke-miterlimit:4;stroke-dasharray:none;stroke-opacity:1;marker-end:url(#marker4440)"
       d="M 104.72769,252.24403 H 524.35081"
       id="path5578" />
    <text
       xml:space="preserve"
       style="font-size:18.6667px;line-height:1.25;font-family:Lato;-inkscape-font-specification:Lato;fill:#d0d0d0;fill-opacity:1;stroke:none;stroke-opacity:1"
       x="596.06799"
       y="321.42487"
       id="text11108"><tspan
         sodipodi:role="line"
         id="tspan11106"
         x="596.06799"
         y="321.42487"
         style="text-align:center;text-anchor:middle;fill:#d0d0d0;fill-opacity:1;stroke:none;stroke-opacity:1">ethdo</tspan><tspan
         sodipodi:role="line"
         x="596.06799"
         y="344.75824"
         style="text-align:center;text-anchor:middle;fill:#d0d0d0;fill-opacity:1;stroke:none;stroke-opacity:1"
         id="tspan11132">(with keys)</tspan></text>
    <text
       xml:space="preserve"
       style="font-size:32px;line-height:1.25;font-family:Lato;-inkscape-font-specification:Lato;display:inline;fill:#b0b0b0;fill-opacity:1;stroke:none;stroke-opacity:1"
       x="599.86401"
       y="26.809605"
       id="text27911"><tspan
         sodipodi:role="line"
         x="599.86401"
         y="26.809605"
         style="font-size:32px;text-align:center;text-anchor:middle;fill:#b0b0b0;fill-opacity:1;stroke:none;stroke-opacity:1"
         id="tspan27909">Online</tspan></text>
  </g>
  <g
     inkscape:groupmode="layer"
     id="layer8"
     inkscape:label="Offline withdrawal credentials change"
     style="display:none">
    <g
       id="g27447"
       transform="translate(-277.64603,147.10741)">
      <path
         id="path27431"
         d="m 596.06796,54.89213 a 48.64,48.64 0 0 0 -48.63984,48.63984 48.64,48.64 0 0 0 0.008,0.23438 48.64,48.64 0 0 0 -0.008,0.16562 48.64,48.64 0 0 0 0.008,0.23438 48.64,48.64 0 0 0 -0.008,0.16562 48.64,48.64 0 0 0 0.008,0.23438 48.64,48.64 0 0 0 -0.008,0.16562 48.64,48.64 0 0 0 0.008,0.23438 48.64,48.64 0 0 0 -0.008,0.16562 48.64,48.64 0 0 0 0.008,0.23438 48.64,48.64 0 0 0 -0.008,0.16562 48.64,48.64 0 0 0 0.008,0.23438 48.64,48.64 0 0 0 -0.008,0.16562 48.64,48.64 0 0 0 0.008,0.23438 48.64,48.64 0 0 0 -0.008,0.16562 48.64,48.64 0 0 0 0.008,0.23438 48.64,48.64 0 0 0 -0.008,0.16562 48.64,48.64 0 0 0 0.008,0.23438 48.64,48.64 0 0 0 -0.008,0.16562 48.64,48.64 0 0 0 48.63984,48.64024 48.64,48.64 0 0 0 48.63984,-48.64024 48.64,48.64 0 0 0 -0.008,-0.23437 48.64,48.64 0 0 0 0.008,-0.16563 48.64,48.64 0 0 0 -0.008,-0.23437 48.64,48.64 0 0 0 0.008,-0.16563 48.64,48.64 0 0 0 -0.008,-0.23437 48.64,48.64 0 0 0 0.008,-0.16563 48.64,48.64 0 0 0 -0.008,-0.23437 48.64,48.64 0 0 0 0.008,-0.16563 48.64,48.64 0 0 0 -0.008,-0.23437 48.64,48.64 0 0 0 0.008,-0.16563 48.64,48.64 0 0 0 -0.008,-0.23437 48.64,48.64 0 0 0 0.008,-0.16563 48.64,48.64 0 0 0 -0.008,-0.23437 48.64,48.64 0 0 0 0.008,-0.16563 48.64,48.64 0 0 0 -0.008,-0.23437 48.64,48.64 0 0 0 0.008,-0.16563 48.64,48.64 0 0 0 -0.008,-0.23437 48.64,48.64 0 0 0 0.008,-0.16563 48.64,48.64 0 0 0 -48.63984,-48.63984 z"
         style="fill:#000000;fill-opacity:1;stroke:none;stroke-width:0.19;stroke-linecap:square;stroke-miterlimit:4;stroke-dasharray:none;stroke-dashoffset:0;stroke-opacity:1" />
      <circle
         r="48.639999"
         cy="103.13213"
         cx="596.06799"
         id="circle27433"
         style="fill:#d0d0d0;fill-opacity:1;stroke:none;stroke-width:0.19;stroke-linecap:square;stroke-miterlimit:4;stroke-dasharray:none;stroke-dashoffset:0;stroke-opacity:1" />
      <g
         id="g27439"
         transform="translate(-165.65975,5.478358)">
        <path
           d="m 780.23799,97.443192 a 2.8922269,2.8922269 0 0 0 -3.15252,0.54952 l -14.92389,14.056218 a 0.69413446,0.69413446 0 0 1 -0.98336,0 l -14.8082,-14.027298 a 2.8922269,2.8922269 0 0 0 -4.88787,2.082398 v 13.767 a 2.8922269,2.8922269 0 0 0 0.89659,2.11133 l 17.35337,16.37 a 2.8922269,2.8922269 0 0 0 3.99127,0 l 17.35336,-16.37 a 2.8922269,2.8922269 0 0 0 0.89659,-2.11133 v -13.767 a 2.8922269,2.8922269 0 0 0 -1.73534,-2.660838 z"
           fill="#000000"
           id="path27435"
           style="fill:#000000;fill-opacity:1;stroke-width:2.89223" />
        <path
           d="m 780.23799,66.409593 a 2.8922269,2.8922269 0 0 0 -3.15252,0.520601 l -14.92389,14.056222 a 0.72305672,0.72305672 0 0 1 -0.98336,0 l -14.8082,-14.0273 a 2.8922269,2.8922269 0 0 0 -4.88787,2.111325 v 13.767001 a 2.8922269,2.8922269 0 0 0 0.89659,2.082403 l 17.35337,16.370005 a 2.8922269,2.8922269 0 0 0 1.99563,0.80982 2.8922269,2.8922269 0 0 0 1.99564,-0.80982 l 17.35336,-16.370005 a 2.8922269,2.8922269 0 0 0 0.89659,-2.111326 v -13.767 a 2.8922269,2.8922269 0 0 0 -1.73534,-2.631926 z"
           fill="#000000"
           id="path27437"
           style="fill:#000000;fill-opacity:1;stroke-width:2.89223" />
      </g>
      <g
         id="g27445">
        <path
           d="m 614.57824,100.92155 a 2.8922269,2.8922269 0 0 0 -3.15252,0.54952 l -14.92389,14.05622 a 0.69413446,0.69413446 0 0 1 -0.98336,0 l -14.8082,-14.0273 a 2.8922269,2.8922269 0 0 0 -4.88787,2.0824 v 13.767 a 2.8922269,2.8922269 0 0 0 0.89659,2.11133 l 17.35337,16.37 a 2.8922269,2.8922269 0 0 0 3.99127,0 l 17.35336,-16.37 a 2.8922269,2.8922269 0 0 0 0.89659,-2.11133 v -13.767 a 2.8922269,2.8922269 0 0 0 -1.73534,-2.66084 z"
           fill="#000000"
           id="path27441"
           style="fill:#b0b0b0;fill-opacity:1;stroke-width:2.89223" />
        <path
           d="m 614.57824,69.887949 a 2.8922269,2.8922269 0 0 0 -3.15252,0.520601 l -14.92389,14.056222 a 0.72305672,0.72305672 0 0 1 -0.98336,0 l -14.8082,-14.0273 a 2.8922269,2.8922269 0 0 0 -4.88787,2.111325 v 13.767001 a 2.8922269,2.8922269 0 0 0 0.89659,2.082403 l 17.35337,16.370009 a 2.8922269,2.8922269 0 0 0 1.99563,0.80982 2.8922269,2.8922269 0 0 0 1.99564,-0.80982 l 17.35336,-16.370009 a 2.8922269,2.8922269 0 0 0 0.89659,-2.111326 v -13.767 a 2.8922269,2.8922269 0 0 0 -1.73534,-2.631926 z"
           fill="#000000"
           id="path27443"
           style="fill:#b0b0b0;fill-opacity:1;stroke-width:2.89223" />
      </g>
    </g>
    <path
       style="fill:none;stroke:#b0b0b0;stroke-width:8;stroke-linecap:butt;stroke-linejoin:miter;stroke-miterlimit:4;stroke-dasharray:8, 16;stroke-dashoffset:0;stroke-opacity:1"
       d="M 452.22833,1.446294 V 498.3684"
       id="path4358" />
    <path
       style="display:inline;fill:none;stroke:#d0d0d0;stroke-width:4;stroke-linecap:butt;stroke-linejoin:miter;stroke-miterlimit:4;stroke-dasharray:none;stroke-opacity:1;marker-end:url(#marker4440)"
       d="M 102.34622,252.24403 H 249.08619"
       id="path6402"
       sodipodi:nodetypes="cc" />
    <path
       style="display:inline;fill:none;stroke:#d0d0d0;stroke-width:4;stroke-linecap:butt;stroke-linejoin:miter;stroke-miterlimit:4;stroke-dasharray:4, 4;stroke-dashoffset:0;stroke-opacity:1;marker-end:url(#marker4440)"
       d="M 379.99228,252.24403 H 526.73225"
       id="path6404"
       sodipodi:nodetypes="cc" />
    <text
       xml:space="preserve"
       style="font-size:18.6667px;line-height:1.25;font-family:Lato;-inkscape-font-specification:Lato;display:inline;fill:#b0b0b0;fill-opacity:1;stroke:none;stroke-opacity:1"
       x="596.06799"
       y="321.42487"
       id="text15698"><tspan
         sodipodi:role="line"
         id="tspan15694"
         x="596.06799"
         y="321.42487"
         style="text-align:center;text-anchor:middle;fill:#b0b0b0;fill-opacity:1;stroke:none;stroke-opacity:1">ethdo</tspan><tspan
         sodipodi:role="line"
         x="596.06799"
         y="344.75824"
         style="text-align:center;text-anchor:middle;fill:#b0b0b0;fill-opacity:1;stroke:none;stroke-opacity:1"
         id="tspan15696">(without keys)</tspan></text>
    <text
       xml:space="preserve"
       style="font-size:18.6667px;line-height:1.25;font-family:Lato;-inkscape-font-specification:Lato;display:inline;fill:#b0b0b0;fill-opacity:1;stroke:none;stroke-opacity:1"
       x="318.42194"
       y="321.42487"
       id="text15707"><tspan
         sodipodi:role="line"
         id="tspan15703"
         x="318.42194"
         y="321.42487"
         style="text-align:center;text-anchor:middle;fill:#b0b0b0;fill-opacity:1;stroke:none;stroke-opacity:1">ethdo</tspan><tspan
         sodipodi:role="line"
         x="318.42194"
         y="344.75824"
         style="text-align:center;text-anchor:middle;fill:#b0b0b0;fill-opacity:1;stroke:none;stroke-opacity:1"
         id="tspan15705">(with keys)</tspan></text>
    <text
       xml:space="preserve"
       style="font-size:32px;line-height:1.25;font-family:Lato;-inkscape-font-specification:Lato;display:inline;fill:#b0b0b0;fill-opacity:1;stroke:none;stroke-opacity:1"
       x="246.36612"
       y="26.809605"
       id="text16335"><tspan
         sodipodi:role="line"
         x="246.36612"
         y="26.809605"
         style="font-size:32px;text-align:center;text-anchor:middle;fill:#b0b0b0;fill-opacity:1;stroke:none;stroke-opacity:1"
         id="tspan16333">Offline</tspan></text>
    <text
       xml:space="preserve"
       style="font-size:32px;line-height:1.25;font-family:Lato;-inkscape-font-specification:Lato;display:inline;fill:#b0b0b0;fill-opacity:1;stroke:none;stroke-opacity:1"
       x="801.6582"
       y="26.809605"
       id="text18181"><tspan
         sodipodi:role="line"
         x="801.6582"
         y="26.809605"
         style="font-size:32px;text-align:center;text-anchor:middle;fill:#b0b0b0;fill-opacity:1;stroke:none;stroke-opacity:1"
         id="tspan18179">Online</tspan></text>
  </g>
</svg>
